<?xml version="1.0" standalone="no"?>
<!DOCTYPE svg PUBLIC "-//W3C//DTD SVG 20010904//EN"
 "http://www.w3.org/TR/2001/REC-SVG-20010904/DTD/svg10.dtd">
<svg version="1.0" xmlns="http://www.w3.org/2000/svg"
 width="700.000000pt" height="700.000000pt" viewBox="0 0 700.000000 700.000000"
 preserveAspectRatio="xMidYMid meet">
<metadata>
Created by potrace 1.14, written by Peter Selinger 2001-2017
</metadata>
<g transform="translate(0.000000,700.000000) scale(0.100000,-0.100000)"
fill="#000000" stroke="none">
<path d="M3328 6635 c-2 -1 -39 -5 -84 -9 -72 -5 -138 -13 -259 -31 -32 -5
-147 -28 -248 -50 -56 -12 -311 -93 -362 -115 -11 -5 -60 -26 -110 -46 -98
-41 -280 -133 -360 -182 -27 -17 -70 -43 -95 -58 -25 -15 -90 -60 -145 -100
-640 -463 -1083 -1145 -1239 -1909 -14 -66 -28 -142 -31 -170 -4 -27 -9 -61
-11 -75 -11 -65 -19 -230 -19 -380 1 -150 12 -376 20 -390 1 -3 6 -32 10 -65
3 -32 8 -62 10 -65 1 -3 6 -27 9 -55 4 -27 20 -106 37 -174 272 -1133 1166
-2032 2292 -2305 281 -68 464 -90 762 -90 250 -1 380 12 625 59 388 75 837
271 1181 515 219 157 461 383 614 575 22 28 43 52 46 55 3 3 30 39 60 80 199
274 352 572 453 889 41 125 93 331 102 401 3 25 8 47 9 50 2 3 6 37 10 75 4
39 9 72 10 75 2 3 7 55 11 115 39 560 -54 1074 -287 1573 -177 379 -468 765
-784 1038 -44 38 -82 71 -85 74 -16 17 -208 156 -280 202 -309 199 -693 357
-1025 424 -120 24 -226 42 -295 49 -30 3 -73 8 -95 11 -39 6 -442 14 -447 9z
m487 -148 c11 -3 49 -8 85 -12 53 -6 143 -22 280 -50 73 -15 315 -87 355 -105
11 -5 56 -23 99 -40 115 -45 285 -130 411 -206 674 -404 1172 -1072 1364
-1829 66 -262 86 -436 86 -750 0 -230 -8 -338 -36 -500 -5 -33 -12 -69 -13
-80 -34 -203 -171 -597 -273 -785 -20 -36 -49 -90 -66 -120 -16 -30 -63 -105
-104 -167 -364 -555 -923 -984 -1553 -1192 -121 -39 -253 -76 -315 -87 -16 -3
-46 -9 -65 -14 -19 -5 -60 -12 -90 -15 -30 -4 -57 -8 -60 -10 -3 -2 -45 -6
-95 -10 -49 -4 -99 -9 -110 -12 -56 -11 -456 -3 -545 12 -14 2 -50 7 -80 10
-93 11 -300 53 -405 84 -316 91 -579 212 -841 386 -228 151 -387 289 -604 524
-55 60 -166 207 -245 326 -288 435 -452 914 -491 1435 -7 105 -8 368 0 435 3
28 8 79 12 115 3 36 8 72 9 81 2 9 6 40 10 70 4 30 8 56 10 59 2 3 6 23 9 45
4 22 15 76 27 120 11 44 22 87 24 96 15 65 82 258 132 379 33 82 149 304 205
395 399 642 1025 1114 1741 1314 119 33 322 76 407 86 30 3 87 10 125 14 72 9
564 7 600 -2z"/>
<path d="M3285 6320 c-37 -5 -40 -7 -39 -35 2 -56 2 -56 47 -54 24 2 48 0 54
-4 5 -4 11 -37 12 -74 5 -138 7 -173 13 -178 9 -10 61 -16 83 -11 19 5 20 12
20 138 l-1 133 50 5 51 5 1 43 1 42 -126 -2 c-69 -2 -144 -5 -166 -8z"/>
<path d="M3678 6314 c-3 -5 -6 -33 -7 -63 -2 -29 -4 -61 -6 -70 -9 -50 -14
-198 -7 -209 10 -15 88 -26 96 -13 6 8 12 63 21 186 3 39 8 91 11 118 3 26 4
47 2 47 -2 0 -26 3 -54 6 -29 3 -54 2 -56 -2z"/>
<path d="M3089 6300 c-65 -11 -80 -23 -119 -96 -19 -35 -37 -61 -41 -57 -4 5
-12 31 -16 58 l-9 50 -44 -3 c-24 -1 -49 -7 -55 -12 -9 -7 -3 -53 21 -177 19
-93 34 -170 34 -171 0 -2 19 -1 42 2 56 8 70 23 59 62 -9 31 -2 53 26 86 14
15 19 12 65 -44 l51 -60 56 6 c31 4 59 10 64 15 5 5 -16 35 -47 67 -83 90
-106 118 -106 132 0 7 17 39 38 70 21 31 42 63 46 70 8 13 4 13 -65 2z"/>
<path d="M3965 6264 c-69 -37 -105 -98 -106 -181 -2 -115 77 -184 207 -180 75
2 109 23 141 88 42 82 33 185 -20 232 -53 47 -169 69 -222 41z m126 -85 c32
-17 40 -52 25 -109 -15 -59 -30 -78 -66 -83 -35 -6 -59 9 -75 45 -11 26 -10
39 3 77 8 25 22 54 30 64 17 19 54 22 83 6z"/>
<path d="M2535 6159 c-71 -27 -133 -50 -137 -51 -6 -3 106 -325 117 -336 2 -2
39 8 82 23 43 16 101 36 128 46 28 10 54 24 59 32 12 18 -1 67 -17 67 -7 0
-50 -13 -94 -30 l-81 -29 -11 31 c-6 17 -11 32 -11 33 0 2 34 15 75 30 42 16
78 31 80 36 7 11 -16 59 -28 59 -5 0 -41 -11 -80 -25 -38 -14 -71 -24 -73 -22
-2 2 -5 14 -6 27 -3 22 5 28 78 55 l80 30 -8 32 c-5 18 -12 34 -16 36 -4 2
-65 -18 -137 -44z"/>
<path d="M4393 6182 c-6 -4 -40 -79 -75 -167 l-64 -160 43 -19 c29 -12 47 -16
54 -9 5 5 22 43 38 83 32 84 39 81 60 -20 26 -121 28 -127 71 -144 22 -9 44
-16 49 -16 13 0 133 310 127 326 -3 7 -22 20 -42 29 -44 18 -42 20 -81 -78
-14 -37 -30 -64 -34 -60 -5 5 -16 40 -25 78 -9 39 -21 82 -26 96 -10 29 -77
72 -95 61z"/>
<path d="M2194 6011 c-109 -27 -175 -125 -130 -193 28 -42 63 -50 151 -34 70
13 91 11 99 -11 15 -38 -51 -68 -93 -42 -14 10 -26 7 -60 -11 -22 -13 -41 -27
-41 -31 0 -19 64 -59 93 -59 45 0 134 44 173 85 28 31 32 41 30 82 -2 38 -9
51 -35 75 -36 32 -80 36 -151 13 -19 -6 -41 -10 -47 -9 -7 1 -17 2 -23 3 -5 0
-10 8 -10 16 0 20 37 34 73 28 27 -4 97 29 97 46 0 16 -39 43 -67 46 -15 2
-42 0 -59 -4z"/>
<path d="M4803 5957 c-14 -23 -57 -92 -94 -154 l-68 -112 125 -76 c69 -41 129
-75 134 -75 8 0 40 51 40 64 0 2 -36 25 -80 51 -66 39 -78 50 -70 63 26 46 24
46 100 1 l72 -43 19 25 c10 13 19 27 19 31 0 4 -31 26 -70 50 -38 24 -70 46
-70 49 0 3 6 14 14 24 13 18 17 16 92 -28 l78 -46 18 27 c10 15 18 30 18 33 0
7 -89 64 -198 128 l-52 31 -27 -43z"/>
<path d="M3428 5815 c-2 -2 -46 -5 -98 -8 -117 -8 -163 -13 -265 -33 -796
-153 -1452 -705 -1733 -1459 -36 -96 -87 -266 -98 -329 -42 -240 -48 -304 -47
-491 0 -191 10 -292 44 -460 154 -758 678 -1391 1394 -1682 274 -112 564 -167
870 -167 204 0 313 11 490 50 432 93 805 291 1119 594 375 362 606 813 690
1350 25 156 25 476 1 630 -29 179 -61 314 -107 445 -123 352 -294 624 -562
890 -196 194 -366 315 -612 436 -243 119 -499 191 -794 224 -49 6 -288 14
-292 10z m322 -68 c8 -3 40 -8 70 -12 77 -8 235 -41 333 -71 641 -191 1165
-660 1427 -1277 70 -164 138 -413 155 -562 3 -27 8 -61 12 -75 3 -14 6 -108 8
-210 4 -265 -25 -478 -96 -710 -146 -480 -466 -912 -885 -1197 -279 -189 -623
-324 -939 -367 -22 -3 -69 -10 -105 -15 -114 -16 -460 -6 -591 18 -243 43
-446 109 -653 213 -640 318 -1094 928 -1212 1627 -3 18 -8 43 -10 55 -25 128
-25 551 1 676 3 14 10 52 16 85 90 508 386 1005 789 1327 41 33 84 66 94 75
47 38 201 132 301 183 201 103 443 184 638 214 20 3 54 9 75 12 98 16 192 21
367 18 105 -1 197 -5 205 -7z"/>
<path d="M4095 5266 c-65 -19 -130 -49 -181 -83 -100 -67 -374 -320 -374 -345
0 -27 -37 5 -105 93 -176 225 -323 315 -531 323 -137 6 -242 -30 -315 -107
-98 -103 -122 -242 -63 -367 55 -117 137 -174 247 -172 79 1 149 26 194 71 52
50 73 98 74 168 1 82 -24 138 -73 164 -15 8 -16 5 -7 -24 14 -44 13 -124 -2
-161 -37 -91 -110 -153 -166 -140 -56 14 -115 79 -134 149 -50 181 64 349 230
340 187 -10 335 -124 395 -304 69 -210 59 -319 -50 -546 -111 -232 -380 -562
-569 -697 -160 -114 -280 -139 -401 -84 -73 34 -108 88 -108 165 0 152 126
221 225 123 29 -29 38 -48 44 -88 4 -30 2 -68 -4 -90 -13 -46 -9 -51 23 -34
70 37 63 196 -11 262 -70 63 -200 62 -281 -3 -42 -34 -83 -116 -83 -170 -1
-25 10 -74 25 -113 14 -37 26 -69 26 -70 0 -1 -93 -1 -206 -1 -205 1 -206 1
-225 24 -19 23 -20 53 -4 94 11 26 61 22 87 -8 27 -31 37 -32 31 -2 -8 40 -45
77 -83 83 -43 6 -96 -24 -111 -64 -14 -36 -5 -99 19 -131 19 -26 19 -27 -5
-61 -53 -76 -3 -190 83 -190 45 0 94 45 94 86 l0 27 -25 -27 c-49 -52 -109
-28 -101 42 7 62 7 62 237 62 115 0 209 -3 209 -7 0 -5 -9 -22 -19 -39 -54
-88 -39 -216 34 -289 63 -62 176 -85 250 -49 90 42 134 159 96 251 -10 26 -57
61 -67 51 -1 -2 2 -24 7 -48 27 -118 -40 -220 -144 -220 -132 0 -168 236 -47
318 81 55 213 56 320 3 177 -88 386 -302 594 -610 147 -218 209 -459 161 -635
-20 -74 -75 -181 -123 -236 -127 -149 -362 -183 -469 -68 -111 118 -76 352 61
413 105 46 227 -135 188 -278 -11 -40 -10 -42 19 -27 32 18 60 86 61 150 2
130 -91 226 -238 245 -117 16 -220 -47 -279 -171 -24 -49 -29 -72 -29 -139 0
-97 21 -151 89 -224 116 -124 295 -151 502 -76 138 50 219 117 349 288 43 56
79 104 81 106 2 3 18 -13 36 -35 98 -120 309 -302 405 -349 50 -25 74 -34 137
-52 11 -3 74 -7 140 -9 97 -3 135 0 200 17 184 48 367 175 458 319 70 112 97
273 68 400 -31 131 -130 262 -238 315 -73 36 -98 40 -218 39 -80 0 -109 -4
-148 -22 -177 -80 -285 -302 -236 -485 32 -121 132 -224 251 -258 15 -4 28 -6
28 -5 0 2 -12 16 -26 32 -37 42 -83 142 -98 215 -24 119 -1 275 52 350 18 26
48 50 90 71 55 27 68 30 118 24 129 -15 188 -84 217 -257 14 -79 15 -223 2
-299 -4 -22 -6 -42 -6 -45 2 -12 -44 -123 -64 -155 -78 -124 -234 -193 -420
-186 -133 6 -224 51 -348 172 -133 132 -230 283 -379 592 -165 343 -182 377
-225 451 -96 163 -244 334 -361 416 -23 17 -42 33 -42 38 0 4 192 7 428 7
l427 0 50 -24 c88 -41 116 -88 111 -189 -3 -56 -25 -106 -58 -126 -35 -22
-110 -24 -147 -4 -68 36 -88 91 -65 182 8 30 12 56 10 59 -3 2 -18 -5 -34 -17
-89 -63 -59 -222 52 -272 51 -23 156 -20 204 5 78 41 119 120 110 213 -7 69
-34 120 -89 163 l-47 37 50 48 c28 26 59 66 69 89 35 78 19 173 -41 234 -99
103 -302 73 -349 -51 -26 -68 -3 -155 48 -182 33 -17 39 -9 20 27 -21 39 -14
124 12 163 37 54 126 73 189 40 83 -43 88 -219 9 -292 -53 -48 -66 -50 -514
-47 -231 1 -429 2 -440 3 -15 1 -7 10 31 35 117 79 247 223 336 372 25 44 94
176 153 294 286 580 328 647 508 821 126 122 233 167 367 156 127 -11 240 -54
309 -118 66 -61 121 -177 135 -284 8 -57 8 -222 0 -275 -24 -168 -106 -270
-225 -278 -74 -5 -120 10 -168 58 -69 68 -100 162 -95 287 6 138 41 240 108
317 14 16 26 30 26 32 0 9 -98 -31 -134 -55 -93 -64 -144 -160 -153 -287 -18
-257 217 -472 472 -433 185 29 349 191 382 377 31 179 -33 365 -177 512 -81
82 -176 140 -300 180 -81 27 -114 32 -220 36 -89 3 -139 0 -175 -10z"/>
<path d="M5169 5751 c-8 -10 -58 -71 -113 -135 -107 -126 -106 -123 -46 -166
l28 -20 53 64 c29 36 57 62 62 59 4 -3 6 -26 3 -51 -19 -162 -20 -152 16 -189
17 -18 37 -33 43 -33 10 0 217 240 224 261 4 12 -47 69 -62 69 -5 0 -26 -19
-46 -42 -20 -23 -46 -53 -59 -67 l-24 -26 7 85 c4 47 8 98 10 113 2 21 -6 37
-33 63 -41 39 -45 40 -63 15z"/>
<path d="M1642 5633 l-111 -96 52 -61 c29 -34 68 -79 88 -101 20 -22 50 -56
66 -75 36 -40 18 -48 166 79 l98 85 -30 29 -29 30 -64 -54 c-34 -30 -66 -58
-70 -64 -4 -5 -8 -7 -10 -5 -2 3 -12 16 -23 28 l-20 24 65 58 65 59 -25 25
-26 26 -65 -55 c-66 -54 -67 -54 -84 -35 -18 20 -17 21 26 61 24 22 54 47 67
56 28 19 28 34 -1 61 l-23 22 -112 -97z"/>
<path d="M1988 5662 c-53 -35 -55 -39 -41 -57 8 -11 18 -27 23 -34 6 -12 19
-7 64 27 31 24 56 45 56 48 0 9 -32 54 -39 54 -3 0 -31 -17 -63 -38z"/>
<path d="M1019 3426 c-2 -2 -78 -7 -169 -11 -91 -4 -167 -8 -169 -11 -4 -4 -2
-81 4 -184 2 -25 4 -55 4 -67 1 -20 6 -23 41 -23 l40 0 1 53 c1 28 1 61 0 72
-2 41 11 47 135 51 65 3 120 7 122 9 7 6 8 106 1 110 -3 3 -8 3 -10 1z"/>
<path d="M6250 3385 c-41 -13 -114 -35 -162 -50 -55 -16 -92 -33 -98 -44 -15
-28 -18 -89 -6 -105 6 -8 79 -45 161 -82 83 -37 155 -71 161 -75 17 -14 24 1
24 52 0 41 -4 51 -25 65 -20 13 -25 24 -25 59 0 58 7 73 41 91 26 13 29 20 29
64 0 34 -4 50 -12 50 -7 -1 -47 -12 -88 -25z m-48 -160 c-2 -19 -5 -35 -7 -35
-1 0 -18 6 -36 14 -19 7 -43 17 -54 21 -17 7 -14 10 20 21 70 22 82 19 77 -21z"/>
<path d="M930 3095 c-58 -12 -116 -27 -130 -33 -64 -26 -88 -80 -77 -171 8
-68 34 -116 76 -139 43 -23 87 -22 238 9 65 13 77 27 68 80 l-7 42 -47 -6
c-25 -4 -57 -9 -71 -12 -90 -18 -124 -22 -141 -18 -10 3 -19 6 -19 7 0 1 -4
16 -9 33 -15 52 8 70 119 92 133 27 130 26 130 76 0 23 -6 47 -12 52 -9 7 -49
2 -118 -12z"/>
<path d="M6213 2920 l-18 -81 -45 6 c-25 3 -61 10 -81 16 -21 5 -58 13 -83 18
-41 8 -48 6 -61 -12 -8 -12 -15 -36 -15 -54 0 -26 5 -34 23 -38 12 -2 63 -14
112 -25 50 -11 104 -22 120 -25 98 -19 94 -19 99 6 23 100 46 211 46 223 0 22
-29 46 -55 46 -22 0 -26 -8 -42 -80z"/>
<path d="M955 2678 c-88 -33 -161 -62 -162 -63 -6 -4 30 -95 37 -95 5 0 42 13
84 29 87 34 87 33 13 -78 l-50 -75 12 -45 c7 -25 15 -49 19 -52 6 -6 201 62
279 97 17 8 36 14 42 14 14 0 14 13 -1 61 -6 22 -17 39 -23 39 -7 0 -43 -11
-79 -25 -37 -14 -71 -25 -76 -25 -6 0 17 40 50 90 33 49 60 94 60 99 0 17 -32
91 -39 91 -3 -1 -78 -28 -166 -62z"/>
<path d="M5924 2690 c-48 -21 -67 -42 -95 -104 -41 -94 -8 -191 81 -236 47
-24 109 -31 154 -19 65 18 123 97 130 179 12 128 -149 235 -270 180z m125
-122 c36 -18 47 -29 49 -51 4 -35 -21 -75 -52 -83 -30 -7 -123 32 -137 58 -14
26 -2 75 24 93 25 18 54 13 116 -17z"/>
<path d="M5738 2357 c-39 -62 -41 -84 -14 -162 13 -38 23 -71 22 -72 -1 -1
-27 11 -58 27 l-55 29 -27 -48 -26 -49 107 -63 c60 -34 130 -75 158 -90 l49
-28 23 41 c28 49 29 65 4 73 -26 8 -50 37 -61 74 l-9 32 72 -2 c40 -1 77 -1
84 0 10 1 73 93 73 106 0 3 -58 5 -129 5 l-130 0 -15 55 c-9 30 -19 68 -22 85
-4 16 -9 30 -13 30 -3 0 -18 -19 -33 -43z"/>
<path d="M1128 2301 c-76 -43 -144 -81 -153 -84 -22 -9 -20 -17 35 -114 65
-113 98 -138 174 -130 64 6 101 24 144 68 46 47 58 100 36 157 -16 44 -78 159
-93 174 -4 4 -68 -28 -143 -71z m138 -86 c25 -39 11 -80 -40 -110 -61 -36
-101 -33 -126 7 l-19 32 82 48 c45 26 83 48 84 48 2 0 10 -11 19 -25z"/>
<path d="M1392 2025 c-65 -28 -73 -74 -32 -188 16 -46 18 -62 9 -73 -31 -37
-74 2 -66 60 5 33 1 47 -19 73 -14 18 -29 33 -35 33 -18 0 -50 -64 -46 -95 9
-69 61 -136 136 -175 50 -25 132 16 147 75 7 27 -7 83 -37 145 -19 39 -15 60
12 60 24 0 42 -35 34 -67 -4 -19 2 -33 29 -64 34 -37 36 -38 47 -18 19 36 15
113 -8 145 -58 81 -117 111 -171 89z"/>
<path d="M5487 1970 c-77 -68 -98 -166 -45 -210 37 -31 84 -25 162 21 74 45
104 44 98 -1 -3 -33 -31 -51 -68 -45 -28 5 -34 1 -57 -34 l-27 -40 22 -16 c28
-19 71 -19 107 -1 36 19 90 80 108 124 27 64 -4 137 -68 158 -41 14 -77 2
-152 -52 -50 -36 -73 -36 -65 1 3 20 21 31 58 39 14 3 36 19 49 36 28 39 15
60 -39 60 -29 0 -47 -9 -83 -40z"/>
<path d="M5257 1714 c-135 -98 -152 -204 -48 -305 59 -56 107 -72 172 -53 75
22 169 132 169 196 0 13 -21 46 -49 78 l-48 54 -52 -49 c-29 -28 -57 -51 -62
-53 -15 -6 -10 -21 14 -48 l23 -25 29 27 29 27 10 -22 c20 -46 -56 -105 -111
-85 -32 11 -93 87 -93 116 0 28 53 78 76 72 23 -5 33 1 68 48 l27 36 -33 11
c-48 15 -72 11 -121 -25z"/>
<path d="M1701 1698 l-25 -31 41 -38 41 -38 -21 -28 c-12 -15 -24 -30 -27 -33
-20 -19 -120 -139 -120 -145 0 -4 17 -22 38 -41 l37 -34 50 57 c28 31 68 77
91 101 l41 45 42 -33 41 -33 25 23 c34 32 31 50 -18 89 -23 18 -64 53 -92 76
-95 83 -110 95 -115 94 -3 0 -16 -14 -29 -31z"/>
<path d="M4902 1532 c-21 -16 -21 -19 -7 -40 19 -26 23 -26 49 -7 17 13 18 18
6 40 -16 30 -18 30 -48 7z"/>
<path d="M2000 1493 c0 -4 -43 -73 -95 -153 l-94 -145 127 -82 127 -82 22 27
c12 15 22 30 23 34 0 4 -36 30 -80 59 l-80 51 21 29 c12 18 25 26 32 22 7 -4
39 -25 71 -46 l59 -40 18 24 c10 13 19 29 19 34 0 6 -32 30 -70 56 -67 43 -69
46 -55 67 17 24 11 26 124 -45 l51 -33 20 32 c11 18 16 35 12 39 -11 10 -205
135 -230 148 -12 6 -22 8 -22 4z"/>
<path d="M4815 1476 c-17 -12 -18 -17 -6 -40 13 -24 15 -24 42 -10 28 14 29
15 13 39 -19 29 -23 30 -49 11z"/>
<path d="M4923 1450 c-116 -67 -140 -182 -61 -283 67 -84 166 -99 252 -37 115
83 115 229 -1 313 -62 45 -122 47 -190 7z m127 -100 c43 -46 56 -94 35 -126
-18 -28 -50 -43 -78 -36 -24 6 -87 100 -87 129 0 30 38 63 73 63 19 0 38 -10
57 -30z"/>
<path d="M4680 1299 c-24 -11 -46 -22 -48 -24 -2 -2 7 -29 21 -59 l26 -56 -29
-15 c-76 -40 -77 -39 -106 18 -15 28 -27 53 -29 55 -1 1 -25 -8 -52 -20 l-50
-23 73 -159 c40 -87 76 -161 79 -164 7 -7 95 37 95 48 0 4 -11 32 -25 61 -23
51 -24 55 -7 71 9 9 33 24 53 32 l36 15 28 -64 c15 -36 31 -65 35 -65 4 0 28
9 54 20 l46 21 -14 32 c-32 74 -129 283 -135 289 -3 4 -26 -2 -51 -13z"/>
<path d="M2282 1283 c-10 -16 -46 -88 -80 -162 l-60 -134 50 -24 c59 -27 58
-27 58 -8 0 25 60 85 86 85 22 0 24 -4 25 -52 1 -29 2 -57 4 -63 1 -5 3 -17 3
-25 2 -13 98 -70 118 -70 4 0 0 55 -11 125 -11 76 -14 121 -7 130 4 6 43 25
87 41 l80 31 -45 23 c-78 40 -89 40 -165 5 -39 -18 -71 -29 -73 -25 -1 4 7 28
18 54 11 26 20 49 20 52 0 4 -76 44 -84 44 -3 0 -13 -12 -24 -27z"/>
<path d="M2601 997 c-24 -85 -43 -162 -44 -171 -2 -13 10 -22 40 -31 51 -15
53 -14 78 75 10 36 22 69 26 73 3 5 14 -11 22 -35 64 -181 55 -165 103 -178
26 -8 48 -9 53 -4 8 9 87 279 93 318 2 14 -7 22 -37 33 -50 17 -61 12 -70 -29
-4 -18 -14 -55 -23 -82 l-15 -49 -24 54 c-13 29 -29 73 -35 97 -12 49 -52 82
-99 82 -25 0 -27 -6 -68 -153z"/>
<path d="M4088 1084 c-55 -17 -55 -15 -74 -169 -4 -33 -8 -67 -9 -75 -1 -8 -6
-45 -9 -82 -7 -62 -6 -68 11 -67 36 1 86 26 89 43 5 37 14 45 70 57 56 13 57
12 76 -13 13 -19 25 -25 41 -22 12 2 37 8 55 12 l34 7 -73 110 c-82 125 -135
197 -152 206 -7 4 -33 0 -59 -7z m68 -162 l25 -42 -26 -10 c-43 -16 -46 -13
-44 45 1 31 6 54 11 53 5 -2 20 -22 34 -46z"/>
<path d="M3039 1052 c0 -4 -2 -14 -4 -22 -1 -8 -11 -64 -20 -125 -19 -119 -22
-136 -30 -177 -6 -25 -4 -27 47 -35 35 -6 55 -5 60 2 3 5 12 46 18 90 6 44 14
96 17 115 3 19 9 55 13 80 10 49 -3 69 -44 71 -12 0 -29 2 -38 4 -10 2 -18 0
-19 -3z"/>
<path d="M3792 1029 c-11 -4 -41 -37 -68 -74 l-49 -67 -3 34 c-1 18 -5 48 -8
65 -5 32 -6 33 -50 30 -52 -3 -64 -17 -58 -66 6 -53 24 -263 24 -283 0 -13 8
-16 43 -13 23 2 48 4 55 4 8 1 13 12 12 29 -4 52 0 67 24 94 l23 28 46 -70 47
-69 62 6 c35 3 64 6 66 8 1 1 -31 48 -73 105 -82 113 -82 106 -20 175 64 71
64 75 1 73 -31 -1 -64 -6 -74 -9z"/>
<path d="M3276 1016 c-38 -14 -45 -21 -67 -58 -9 -18 -7 -47 7 -82 6 -17 115
-76 140 -76 6 0 19 -9 30 -21 19 -21 18 -21 -3 -39 -28 -22 -70 -15 -85 14
-15 29 -28 36 -70 36 -23 0 -38 -5 -39 -12 -6 -57 28 -102 85 -114 11 -3 51
-5 88 -6 79 -1 112 16 134 68 31 74 2 122 -95 159 -84 32 -104 51 -70 64 19 7
31 4 56 -15 37 -28 113 -34 113 -10 0 78 -124 128 -224 92z"/>
</g>
</svg>
